<?xml version="1.0" encoding="utf-8"?>
<!-- Generator: Adobe Illustrator 23.0.1, SVG Export Plug-In . SVG Version: 6.00 Build 0)  -->
<svg version="1.1" id="Layer_1" xmlns="http://www.w3.org/2000/svg" xmlns:xlink="http://www.w3.org/1999/xlink" x="0px" y="0px"
	 viewBox="0 0 1366 768" style="enable-background:new 0 0 1366 768;" xml:space="preserve">
<g>
	<g>
		<path d="M567.53,128.99c-25.06-4.88-50.95-4.01-75.6,2.72c-11.97,3.27-23.64,7.91-34.58,13.76
			c-10.98,5.87-23.03,13.13-31.12,22.79c-15.91,19.02-9.42,46.21,5.35,63.75c15.99,19,40.5,28.54,63.86,34.77
			c28.71,7.66,58.44,11.05,88.07,12.33c14.63,0.63,29.28,0.75,43.92,0.61c13.79-0.13,27.71-0.05,41.4-1.94
			c23.23-3.2,43.78-14.45,52.86-36.96c8.46-20.94,4.17-44.29-11.01-60.92c-9.05-9.92-20.89-17.03-32.81-22.97
			c-13.94-6.95-28.42-12.94-43.14-18.02c-30.55-10.55-62.45-16.85-94.69-19.11c-7.65-0.54-7.61,11.37,0,11.91
			c25.7,1.8,51.1,6.38,75.81,13.66c23.49,6.92,47.34,15.83,68.34,28.58c17.7,10.76,31.43,26.62,29.81,48.42
			c-1.55,20.71-16.01,36.08-35.62,41.44c-10.83,2.96-22.1,3.47-33.26,3.73c-12.9,0.3-25.81,0.42-38.71,0.27
			c-26.75-0.3-53.59-1.81-79.98-6.41c-23.26-4.06-47.75-9.69-68.08-22.2c-17.09-10.52-34.05-30.39-28.75-52.02
			c2.97-12.09,14-19.42,23.92-25.71c11.02-6.98,22.89-12.51,35.33-16.45c24.35-7.71,50.42-9.44,75.51-4.55
			C571.85,141.93,575.05,130.45,567.53,128.99L567.53,128.99z"/>
	</g>
</g>
<g>
	<g>
		<path d="M547.08,271.36c-0.25,72.88-0.52,145.79-3.73,218.61c-0.34,7.66,11.57,7.64,11.91,0c3.21-72.83,3.49-145.73,3.73-218.61
			C559.01,263.69,547.1,263.68,547.08,271.36L547.08,271.36z"/>
	</g>
</g>
<g>
	<g>
		<path d="M543.98,409.88c-45.39-5.9-95.05,16.09-108.52,62.6c-12.99,44.84,19.32,86.86,55.42,109.47
			c20.22,12.66,43.18,21.25,66.76,24.86c12.08,1.85,24.43,2.94,36.56,0.88c11.91-2.03,22.12-8.3,30.78-16.54
			c33.08-31.47,51.83-79.88,49.75-125.35c-0.59-12.89-3.98-25.04-12.99-34.6c-8.21-8.72-19.28-14.11-30.25-18.46
			c-27.21-10.79-56.25-16.92-85.4-19.14c-7.64-0.58-7.6,11.33,0,11.91c23.48,1.79,46.66,6.47,69,13.93
			c17.57,5.87,40.06,13.66,45.8,33.45c2.89,9.94,2.37,20.97,1.55,31.19c-0.83,10.38-2.8,20.65-5.68,30.66
			c-5.7,19.74-15.2,38.54-28.05,54.61c-6.43,8.04-13.66,16.19-22.59,21.49c-9.59,5.7-20.64,6.52-31.56,5.92
			c-21.38-1.19-42.75-6.97-61.97-16.36c-33.99-16.6-69.56-48.79-68.08-89.91c0.76-21.24,13.09-41.28,30.18-53.51
			c20.02-14.33,45.25-18.31,69.29-15.19c3.22,0.42,5.92-3.04,5.95-5.95C549.97,412.28,547.16,410.3,543.98,409.88L543.98,409.88z"/>
	</g>
</g>
<g>
	<g>
		<path d="M541.51,398.37c-5.35,0.93-10.69,1.86-16.04,2.79c1.53,3.63,3.06,7.25,4.59,10.88c4.64-2.3,9.45-3.89,14.5-5.01
			c7.53-1.67,4.29-12.9-3.17-11.48c-10.21,1.94-20.32,4.3-30.39,6.85c-9.01,2.28-18.69,3.99-27.19,7.83
			c-7.85,3.54-14.1,10.38-20.06,16.41c-6.76,6.84-13.11,14.04-19.12,21.55c-4.74,5.92,3.63,14.4,8.42,8.42
			c5.63-7.03,11.56-13.81,17.85-20.26c5.54-5.68,11.5-12.8,18.99-15.83c8.23-3.33,17.56-4.95,26.16-7.11
			c9.44-2.37,18.93-4.55,28.5-6.38c-1.06-3.83-2.11-7.65-3.17-11.48c-6.06,1.34-11.79,3.46-17.34,6.21
			c-6.46,3.19-1.62,11.96,4.59,10.88c5.35-0.93,10.69-1.86,16.04-2.79C552.21,408.54,549.02,397.07,541.51,398.37L541.51,398.37z"/>
	</g>
</g>
<g>
	<g>
		<path d="M546.97,415.1c18.19-0.63,36.25,1.57,53.72,6.73c9.02,2.67,17.8,6.06,26.23,10.24c7.44,3.69,15.37,7.73,21.6,13.31
			c12.17,10.91,12.36,27.87,9.47,42.83c-2.97,15.36-8.23,30.71-14.31,45.11c-6.02,14.26-13.86,28.15-25.24,38.83
			c-12.25,11.51-28.35,17.74-45.03,18.81c-18,1.16-35.89-3.13-52.21-10.58c-16.08-7.34-32.1-17.06-45.09-29.11
			c-25.64-23.79-34.2-63.44-19.89-95.55c3.09-6.94-7.17-13-10.28-6.01c-14.2,31.88-10.18,70.48,11.16,98.32
			c11.86,15.47,28.78,26.95,45.67,36.34c17.46,9.7,36.55,16.82,56.58,18.39c18.96,1.49,38.95-2.24,55.14-12.54
			c14.86-9.45,25.91-23.62,33.95-39.1c8.16-15.72,14.23-32.91,18.78-50.02c4.39-16.48,6.99-35.06-0.52-51.05
			c-4.5-9.58-12.63-16.13-21.49-21.51c-9.41-5.71-19.42-10.43-29.73-14.29c-21.8-8.16-45.24-11.84-68.49-11.04
			C539.33,403.45,539.29,415.36,546.97,415.1L546.97,415.1z"/>
	</g>
</g>
<g>
	<g>
		<path d="M546.99,121.45c-4.25,0.34-8.4,0.29-12.61-0.44c0.47,3.63,0.95,7.25,1.42,10.88c1.82-1.09,3.64-2.17,5.46-3.26
			c5.85-3.49,1.97-12.45-4.59-10.88c-19.81,4.75-39.62,9.51-59.43,14.26c-7.45,1.79-4.29,13.27,3.17,11.48
			c19.81-4.75,39.62-9.51,59.43-14.26c-1.53-3.63-3.06-7.25-4.59-10.88c-1.82,1.09-3.64,2.17-5.46,3.26
			c-4.07,2.43-3.83,9.97,1.42,10.88c5.26,0.92,10.45,1.29,15.78,0.87C554.57,132.74,554.64,120.83,546.99,121.45L546.99,121.45z"/>
	</g>
</g>
<g>
	<g>
		<path d="M568,146.45c7.67,0,15.33,0,23,0c7.66,0,7.67-11.91,0-11.91c-7.67,0-15.33,0-23,0C560.34,134.55,560.33,146.45,568,146.45
			L568,146.45z"/>
	</g>
</g>
<g>
	<g>
		<path d="M489.75,185.92c12.63-2.79,25.24-5.72,37.9-8.38c4.16-0.87,11.77-1.8,8.16,4.59c-2.33,4.14-6.66,7.08-11.06,8.57
			c-6.66,2.25-4.96,10.91,1.58,11.69c3.97,0.47-0.11,6.66-1.14,7.63c-2.63,2.47-6.26,3.75-9.56,5.02
			c-7.09,2.7-4.01,14.22,3.17,11.48c8.52-3.25,17.78-7.57,20.42-17.19c2.55-9.3-3.6-17.73-12.88-18.84c0.53,3.9,1.06,7.8,1.58,11.69
			c7.45-2.51,14.1-7.2,18.18-14.04c4.23-7.09,3.8-15.84-3.59-20.56c-7.53-4.81-16.71-1.82-24.71-0.05c-10.4,2.3-20.81,4.6-31.21,6.9
			C479.1,176.1,482.27,187.58,489.75,185.92L489.75,185.92z"/>
	</g>
</g>
<g>
	<g>
		<path d="M561.93,176.7c14.18-1.36,28.12-4.01,41.76-8.12c7.32-2.21,4.2-13.7-3.17-11.48c-12.61,3.8-25.48,6.43-38.59,7.69
			C554.37,165.52,554.3,177.43,561.93,176.7L561.93,176.7z"/>
	</g>
</g>
<g>
	<g>
		<path d="M567.01,173.51c0.94,7.88-1.81,16.28,2.97,23.38c4.73,7.02,13.68,8.38,21.43,6.83c2.23-0.44,4.38-1.17,6.51-1.92
			c1.29-0.45,4.06-1.9,4.41-1.27c1.55,2.78-5.46,8.19-7.1,9.57c-7.47,6.29-15.72,11.59-24.34,16.16
			c-6.77,3.59-0.76,13.88,6.01,10.28c9.27-4.92,17.99-10.75,26.07-17.46c6.94-5.76,14.66-14.96,9.87-24.48
			c-2-3.98-5.71-6.58-10.23-6.44c-4.96,0.15-9.5,3.23-14.37,4.08c-3.99,0.69-8.37,0.09-9.25-4.46c-0.89-4.61,0.48-9.58-0.08-14.27
			C578.02,165.99,566.1,165.9,567.01,173.51L567.01,173.51z"/>
	</g>
</g>
<g>
	<g>
		<path d="M860.97,51.31c-22.27,0.74-43.4,8.26-62.61,19.28c-18.24,10.47-36.42,23.7-50.89,39.03
			c-13.89,14.72-24.55,34.85-17.22,55.33c7.35,20.55,26.61,32.35,46.5,38.65c23.48,7.43,48.56,9.86,73.08,10.55
			c12.28,0.35,24.56,0.22,36.84-0.05c11.17-0.24,22.77-0.19,33.28-4.44c20.43-8.26,31.55-29.17,35.6-49.81
			c4.65-23.67,4.25-48.73,2.98-72.71c-0.57-10.78-2.02-22.24-8.95-30.97c-7.25-9.12-18.61-12.01-29.77-12.63
			c-27.91-1.55-56.85,2.06-84.36,6.49c-7.54,1.21-4.34,12.69,3.17,11.48c22.37-3.6,44.97-5.64,67.62-6.11
			c8.78-0.18,18.73-0.94,26.96,2.77c8.39,3.77,11.5,12.21,12.72,20.76c1.44,10.13,1.28,20.65,1.33,30.86
			c0.05,10.81-0.26,21.65-1.22,32.42c-1.66,18.75-6.35,39.67-22.19,51.7c-7.98,6.06-17.48,7.6-27.26,8.01
			c-10.53,0.44-21.1,0.54-31.64,0.53c-22.05-0.03-44.22-1.08-65.88-5.48c-18.56-3.77-39.5-9.41-51.64-25.12
			c-11.91-15.42-8.15-33.44,3.27-47.86c13.01-16.43,31.57-29.73,49.33-40.55c18.53-11.29,39.05-19.5,60.95-20.23
			C868.61,62.96,868.65,51.05,860.97,51.31L860.97,51.31z"/>
	</g>
</g>
<g>
	<g>
		<path d="M836.19,208.56c-7.19,36.05-8.39,72.84-7.66,109.49c0.75,37.39,2.62,74.77,4.05,112.13c1.98-1.98,3.97-3.97,5.95-5.95
			c0.59,0.61,1.18,1.22,1.76,1.83c0.58-7.64-11.32-7.6-11.91,0c-0.43,5.65,4.45,10.6,10.14,10.08c3.11-0.29,6.09-2.5,5.95-5.95
			c-1.41-36.73-3.22-73.46-4.01-110.21c-0.78-36.21,0.09-72.63,7.19-108.25C849.16,204.24,837.69,201.04,836.19,208.56
			L836.19,208.56z"/>
	</g>
</g>
<g>
	<g>
		<path d="M828.46,326.03c-6.45,8.1-19.84,8.55-29.2,10.97c-11.04,2.85-21.93,6.42-32.2,11.42c-18.18,8.86-34.29,23.25-41.55,42.49
			c-6.57,17.4-3.91,37.17,4.4,53.49c9.25,18.16,25.55,30.47,44.34,37.6c20,7.6,42.67,10.1,63.94,10.87
			c20.87,0.76,41.07-3.86,56.4-18.75c29.22-28.4,30.24-75.69,8.81-108.87c-12.54-19.42-32.3-33.71-54.63-39.68
			c-11.54-3.09-23.96-5.2-33.72,3.11c-9.57,8.15-18.59,15.23-30.62,19.53c-7.16,2.56-4.08,14.07,3.17,11.48
			c9.18-3.28,17.75-7.73,25.51-13.65c3.45-2.63,6.51-5.61,9.79-8.43c4.23-3.64,8.85-3.21,14.08-2.4
			c18.33,2.87,35.45,11.97,48.04,25.6c24.31,26.33,29.35,68.96,7.18,98.16c-11.01,14.5-27.09,21.44-45.06,22.04
			c-19.16,0.64-39.61-1.84-58.12-6.78c-17.31-4.62-34.07-13.15-44.37-28.3c-9.24-13.59-13.6-30.93-9.21-47.04
			c5.42-19.88,22.84-33.62,40.92-41.72c10.58-4.74,21.9-7.77,33.15-10.43c9.75-2.3,20.74-3.96,27.38-12.29
			C841.6,328.51,833.23,320.04,828.46,326.03L828.46,326.03z"/>
	</g>
</g>
<g>
	<g>
		<path d="M787.61,116.76c9.66-3.6,21.56-7.03,32.01-5.84c2.22,0.25,2.19,0.02,2.83,2.7c0.52,2.17,0.38,4.5-0.43,6.58
			c-1.69,4.34-5.6,6.41-10.01,7.05c-6.05,0.88-5.28,10.07,0,11.48c3.46,0.93,6.96,1.09,10.51,1.22c2.74,0.1,6.61-0.15,7.97,2.78
			c3.06,6.58-6.67,12.61-10.98,15.46c-7.07,4.67-14.44,8.88-22.05,12.6c-3.89,1.9-7.83,3.68-11.85,5.29
			c-1.68,0.68-3.38,1.33-5.08,1.96c-1.14,0.42-2.27,0.83-3.42,1.22c-3.31,0.51-3.6,2.9-0.87,7.17c5.76-5.08-2.69-13.47-8.42-8.42
			c-4.03,3.56-3.02,10.42,1.65,13.01c5.45,3.02,12.47-0.79,17.61-2.79c13.17-5.14,25.83-11.52,37.67-19.26
			c9.46-6.19,20.1-14.75,17.63-27.5c-1.05-5.44-4.56-9.79-9.73-11.83c-5.63-2.21-11.75-0.85-17.49-2.39c0,3.83,0,7.65,0,11.48
			c15.31-2.23,24.14-19.53,16.8-33.25c-4.27-7.98-13.62-6.8-21.38-6.11c-8.97,0.8-17.71,2.76-26.15,5.9
			C777.33,107.93,780.41,119.44,787.61,116.76L787.61,116.76z"/>
	</g>
</g>
<g>
	<g>
		<path d="M845.46,112.37c11.24-3.69,22.63-6.82,34.17-9.4c7.47-1.67,4.31-13.15-3.17-11.48c-11.54,2.58-22.93,5.72-34.17,9.4
			C835.05,103.27,838.15,114.77,845.46,112.37L845.46,112.37z"/>
	</g>
</g>
<g>
	<g>
		<path d="M835.95,115.74c6.71,9.24,13.51,18.4,20.44,27.47c2.8,3.66,5.64,8.95,10.79,9.27c4.94,0.3,10.21-3.8,14.39-6
			c0.52-0.27,1.03-0.54,1.55-0.81c0.88-0.13,1.02-0.49,0.42-1.08c-0.47-0.87-0.47-0.89-0.01-0.06c0.35,0.54,0.6,1.11,0.76,1.73
			c0.61,1.85,0.63,3.89,0.32,5.79c-0.68,4.16-2.97,7.9-6.1,10.67c-3.52,3.12-7.93,5.06-12.38,6.43c-3.17,0.97-10.33,3.85-13.34,1.87
			c-6.42-4.22-12.39,6.08-6.01,10.28c5.21,3.43,11.46,2,17.17,0.73c5.81-1.3,11.65-3.24,16.78-6.31
			c9.8-5.85,17.02-16.61,15.82-28.38c-0.51-4.98-2.58-11.05-7.33-13.45c-6.02-3.04-12.35,1.61-17.54,4.33
			c-1.06,0.56-3.39,2.42-4.65,2.44c3.53-0.04,0.72-2.05-0.36-3.47c-2.31-3.02-4.6-6.06-6.89-9.1c-4.57-6.09-9.08-12.21-13.55-18.37
			C841.77,103.59,831.44,109.52,835.95,115.74L835.95,115.74z"/>
	</g>
</g>
</svg>
